<svg xmlns="http://www.w3.org/2000/svg" width="1600" height="900" viewBox="0 0 1600 900"><defs><linearGradient id="g" x1="0" y1="0" x2="1" y2="1"><stop offset="0" stop-color="#F1D58A"/><stop offset=".55" stop-color="#C9A962"/><stop offset="1" stop-color="#7D642F"/></linearGradient><radialGradient id="s" cx="70%" cy="25%" r="90%"><stop offset="0" stop-color="#132847"/><stop offset=".5" stop-color="#0A1628"/><stop offset="1" stop-color="#050B14"/></radialGradient><style>.serif{font-family:Georgia,'Times New Roman',serif;letter-spacing:.04em}.sans{font-family:Arial,Helvetica,sans-serif}.arabic{font-family:Tahoma,Arial,sans-serif}</style></defs><rect width="1600" height="900" fill="url(#s)"/><rect x="24" y="24" width="1552" height="852" rx="26" fill="none" stroke="#C9A962" stroke-width="3" opacity=".8"/><circle cx="1408.0" cy="180.0" r="150" fill="none" stroke="#C9A962" opacity=".22"/><circle cx="160.0" cy="756.0" r="130" fill="none" stroke="#C9A962" opacity=".18"/><ellipse cx="320" cy="450" rx="115.50000000000001" ry="165.0" fill="none" stroke="url(#g)" stroke-width="9.9"/>
<ellipse cx="320" cy="450" rx="96.25000000000001" ry="162.25" fill="none" stroke="url(#g)" stroke-width="3.8500000000000005" opacity=".78" transform="rotate(-48 320 450)"/>
<ellipse cx="320" cy="450" rx="96.25000000000001" ry="162.25" fill="none" stroke="url(#g)" stroke-width="3.8500000000000005" opacity=".78" transform="rotate(-24 320 450)"/>
<ellipse cx="320" cy="450" rx="96.25000000000001" ry="162.25" fill="none" stroke="url(#g)" stroke-width="3.8500000000000005" opacity=".78" transform="rotate(24 320 450)"/>
<ellipse cx="320" cy="450" rx="96.25000000000001" ry="162.25" fill="none" stroke="url(#g)" stroke-width="3.8500000000000005" opacity=".78" transform="rotate(48 320 450)"/>
<ellipse cx="320" cy="450" rx="96.25000000000001" ry="162.25" fill="none" stroke="url(#g)" stroke-width="3.8500000000000005" opacity=".78" transform="rotate(90 320 450)"/>
<ellipse cx="320" cy="450" rx="96.25000000000001" ry="162.25" fill="none" stroke="url(#g)" stroke-width="3.8500000000000005" opacity=".78" transform="rotate(-90 320 450)"/>
<line x1="320" y1="276.75" x2="320" y2="623.25" stroke="url(#g)" stroke-width="2.75" opacity=".75"/>
<circle cx="320" cy="450" r="16.5" fill="#C9A962"/><line x1="640" y1="190" x2="640" y2="720" stroke="#C9A962"/><text x="730" y="330" class="serif" fill="#C9A962" font-size="135">BIZRA</text><text x="735" y="475" class="arabic" fill="#C9A962" font-size="88">بذرة</text><text x="735" y="585" class="serif" fill="#F6F2E9" font-size="48">The Seed of Sovereign Intelligence</text><text x="735" y="650" class="arabic" fill="#C9A962" font-size="42">بذرة الذكاء السيادي</text></svg>