<svg xmlns="http://www.w3.org/2000/svg" width="1024" height="1024" viewBox="0 0 1024 1024"><defs><linearGradient id="g" x1="0" y1="0" x2="1" y2="1"><stop offset="0" stop-color="#F1D58A"/><stop offset=".55" stop-color="#C9A962"/><stop offset="1" stop-color="#7D642F"/></linearGradient><radialGradient id="s" cx="70%" cy="25%" r="90%"><stop offset="0" stop-color="#132847"/><stop offset=".5" stop-color="#0A1628"/><stop offset="1" stop-color="#050B14"/></radialGradient><style>.serif{font-family:Georgia,'Times New Roman',serif;letter-spacing:.04em}.sans{font-family:Arial,Helvetica,sans-serif}.arabic{font-family:Tahoma,Arial,sans-serif}</style></defs><rect width="1024" height="1024" fill="url(#s)"/><rect x="24" y="24" width="976" height="976" rx="26" fill="none" stroke="#C9A962" stroke-width="3" opacity=".8"/><circle cx="901.12" cy="204.8" r="150" fill="none" stroke="#C9A962" opacity=".22"/><circle cx="102.4" cy="860.16" r="130" fill="none" stroke="#C9A962" opacity=".18"/><ellipse cx="512" cy="512" rx="157.5" ry="225.0" fill="none" stroke="url(#g)" stroke-width="13.5"/>
<ellipse cx="512" cy="512" rx="131.25" ry="221.25" fill="none" stroke="url(#g)" stroke-width="5.25" opacity=".78" transform="rotate(-48 512 512)"/>
<ellipse cx="512" cy="512" rx="131.25" ry="221.25" fill="none" stroke="url(#g)" stroke-width="5.25" opacity=".78" transform="rotate(-24 512 512)"/>
<ellipse cx="512" cy="512" rx="131.25" ry="221.25" fill="none" stroke="url(#g)" stroke-width="5.25" opacity=".78" transform="rotate(24 512 512)"/>
<ellipse cx="512" cy="512" rx="131.25" ry="221.25" fill="none" stroke="url(#g)" stroke-width="5.25" opacity=".78" transform="rotate(48 512 512)"/>
<ellipse cx="512" cy="512" rx="131.25" ry="221.25" fill="none" stroke="url(#g)" stroke-width="5.25" opacity=".78" transform="rotate(90 512 512)"/>
<ellipse cx="512" cy="512" rx="131.25" ry="221.25" fill="none" stroke="url(#g)" stroke-width="5.25" opacity=".78" transform="rotate(-90 512 512)"/>
<line x1="512" y1="275.75" x2="512" y2="748.25" stroke="url(#g)" stroke-width="3.75" opacity=".75"/>
<circle cx="512" cy="512" r="22.5" fill="#C9A962"/></svg>