<svg xmlns="http://www.w3.org/2000/svg" width="1920" height="1080" viewBox="0 0 1920 1080"><defs><linearGradient id="g" x1="0" y1="0" x2="1" y2="1"><stop offset="0" stop-color="#F1D58A"/><stop offset=".55" stop-color="#C9A962"/><stop offset="1" stop-color="#7D642F"/></linearGradient><radialGradient id="s" cx="70%" cy="25%" r="90%"><stop offset="0" stop-color="#132847"/><stop offset=".5" stop-color="#0A1628"/><stop offset="1" stop-color="#050B14"/></radialGradient><style>.serif{font-family:Georgia,'Times New Roman',serif;letter-spacing:.04em}.sans{font-family:Arial,Helvetica,sans-serif}.arabic{font-family:Tahoma,Arial,sans-serif}</style></defs><rect width="1920" height="1080" fill="url(#s)"/><rect x="24" y="24" width="1872" height="1032" rx="26" fill="none" stroke="#C9A962" stroke-width="3" opacity=".8"/><circle cx="1689.6" cy="216.0" r="150" fill="none" stroke="#C9A962" opacity=".22"/><circle cx="192.0" cy="907.1999999999999" r="130" fill="none" stroke="#C9A962" opacity=".18"/><ellipse cx="1420" cy="520" rx="121.8" ry="174.0" fill="none" stroke="url(#g)" stroke-width="10.44"/>
<ellipse cx="1420" cy="520" rx="101.5" ry="171.1" fill="none" stroke="url(#g)" stroke-width="4.06" opacity=".78" transform="rotate(-48 1420 520)"/>
<ellipse cx="1420" cy="520" rx="101.5" ry="171.1" fill="none" stroke="url(#g)" stroke-width="4.06" opacity=".78" transform="rotate(-24 1420 520)"/>
<ellipse cx="1420" cy="520" rx="101.5" ry="171.1" fill="none" stroke="url(#g)" stroke-width="4.06" opacity=".78" transform="rotate(24 1420 520)"/>
<ellipse cx="1420" cy="520" rx="101.5" ry="171.1" fill="none" stroke="url(#g)" stroke-width="4.06" opacity=".78" transform="rotate(48 1420 520)"/>
<ellipse cx="1420" cy="520" rx="101.5" ry="171.1" fill="none" stroke="url(#g)" stroke-width="4.06" opacity=".78" transform="rotate(90 1420 520)"/>
<ellipse cx="1420" cy="520" rx="101.5" ry="171.1" fill="none" stroke="url(#g)" stroke-width="4.06" opacity=".78" transform="rotate(-90 1420 520)"/>
<line x1="1420" y1="337.3" x2="1420" y2="702.7" stroke="url(#g)" stroke-width="2.9" opacity=".75"/>
<circle cx="1420" cy="520" r="17.4" fill="#C9A962"/><text x="170" y="285" class="serif" fill="#C9A962" font-size="160">BIZRA</text><text x="175" y="400" class="arabic" fill="#C9A962" font-size="90">بذرة</text><text x="175" y="550" class="serif" fill="#F6F2E9" font-size="76">The Seed of</text><text x="175" y="640" class="serif" fill="#F6F2E9" font-size="76">Sovereign Intelligence</text><text x="180" y="725" class="sans" fill="#FFFFFF" font-size="36">Mission-first. Sovereign by design. Built for humanity.</text><rect x="180" y="800" width="290" height="70" rx="35" fill="none" stroke="#C9A962" stroke-width="3"/><text x="325" y="845" text-anchor="middle" class="sans" fill="#C9A962" font-size="28">Explore BIZRA</text></svg>